<?xml version="1.0" standalone="no"?><!DOCTYPE svg PUBLIC "-//W3C//DTD SVG 1.1//EN" "http://www.w3.org/Graphics/SVG/1.1/DTD/svg11.dtd"><svg t="1588137811246" class="icon" viewBox="0 0 1024 1024" version="1.1" xmlns="http://www.w3.org/2000/svg" p-id="5611" xmlns:xlink="http://www.w3.org/1999/xlink" width="400" height="400"><defs><style type="text/css"></style></defs><path d="M154.368 172.394667l349.994667-86.144a32 32 0 0 1 12.245333-0.576l3.029333 0.576 349.994667 86.144a32 32 0 0 1 24.298667 29.013333l0.042666 2.986667-2.944 113.493333-0.981333 29.738667c-4.885333 136.746667-13.653333 198.570667-39.146667 251.562666l-1.792 3.669334-3.562666 6.869333c-57.301333 107.413333-171.178667 231.466667-316.373334 323.925333a32 32 0 0 1-34.346666 0c-145.194667-92.437333-259.072-216.512-316.373334-323.925333l-3.946666-7.616c-24.725333-49.877333-34.24-106.581333-39.445334-226.24l-0.768-18.922667-1.322666-39.082666-2.944-113.493334A32 32 0 0 1 151.466667 173.248l2.88-0.853333 349.994666-86.144L154.368 172.394667z m322.816 416.917333l2.24 1.813333 2.624 1.749334 1.92 1.066666 2.474667 1.109334 1.109333 0.426666 1.536 0.490667 2.048 0.533333 3.52 0.618667 2.56 0.213333 3.349333-0.085333 2.218667-0.213333 2.261333-0.405334 1.92-0.469333 2.624-0.853333 3.434667-1.536 2.346667-1.322667 1.792-1.216 1.984-1.578667 1.834666-1.706666 1.28-1.344 162.88-181.205334 2.048-2.56a32 32 0 0 0-47.36-42.56l-2.304 2.346667-139.050666 154.688-61.546667-69.248-2.282667-2.325333a32 32 0 0 0-47.573333 42.304l2.026667 2.56 85.461333 96.106666 1.450667 1.536 1.173333 1.066667z" fill="#ffbb32" p-id="5612"></path></svg>